<?xml version="1.0" encoding="UTF-8"?>
<!DOCTYPE svg PUBLIC "-//W3C//DTD SVG 1.1//EN" "http://www.w3.org/Graphics/SVG/1.1/DTD/svg11.dtd">
<!-- Creator: CorelDRAW 2019 (64-Bit) -->
<svg xmlns="http://www.w3.org/2000/svg" xml:space="preserve" width="124.371mm" height="135.485mm" version="1.1" style="shape-rendering:geometricPrecision; text-rendering:geometricPrecision; image-rendering:optimizeQuality; fill-rule:evenodd; clip-rule:evenodd"
viewBox="0 0 9888.79 10772.47"
 xmlns:xlink="http://www.w3.org/1999/xlink"
 xmlns:xodm="http://www.corel.com/coreldraw/odm/2003">
 <defs>
  <style type="text/css">
   <![CDATA[
    .fil0 {fill:#FEFEFE}
    .fil1 {fill:black}
   ]]>
  </style>
 </defs>
 <g id="Capa_x0020_1">
  <metadata id="CorelCorpID_0Corel-Layer"/>
  <g id="_1298735776">
   <polygon class="fil0" points="2719.35,6134.07 2004.7,1786.63 9478.73,1756.85 8376.98,6312.73 3076.67,6372.29 "/>
   <path class="fil1" d="M2903.52 5828.07c-38.36,-460.88 -153.71,-1282.81 -212.19,-1786.61l-183.68 -1562.63c-11.03,-88.46 -24.93,-146.99 -24.93,-227.56l6290.95 0c-2.79,125.48 -65.33,358.25 -92.92,496.2l-490.94 2454.66c-153.42,767.14 -8.77,625.94 -552.29,625.94 -1578,0 -3156,0 -4734,0zm6985.27 -4481.1l0 10.39 -1073.04 5375.43 -5807.03 0c0,104.67 49.69,515.85 77.84,595.44 53.25,150.52 191.25,288.24 385.04,288.24l5070.63 0 0 925.76 -4881.27 0c-461.41,0 -718.44,-97.05 -986.11,-297.33 -571.4,-427.53 -549.15,-1180.4 -633.97,-1932.91l-543.19 -4590.57c-20.08,-163.54 -34.01,-452.69 -87.1,-565.13 -58.65,-124.23 -199.17,-251.57 -379.63,-251.57l-1030.96 0 0 -904.72 1094.08 0c372.84,0 662.92,191.74 899.64,425.87 105.55,104.4 201.55,242.85 260.95,391.29 113.79,284.36 71.93,310.86 122.84,529.4l7511.27 0.41z"/>
   <path class="fil1" d="M6290.96 9867.74c0,496.45 432.65,904.72 841.6,904.72l9.21 0 9.02 0 8.86 0c178.31,-0.06 252.96,-2.64 432.23,-87.72 531.14,-252.06 697.31,-998.13 241.12,-1454.33 -72.15,-72.14 -165.97,-130.38 -265.3,-176.54 -242.41,-112.63 -486.94,-115.23 -729.73,-6.72 -99.82,44.61 -203.62,107.24 -279.62,183.26 -157.87,157.91 -267.39,400.7 -267.39,637.32z"/>
   <path class="fil1" d="M2251.28 9867.74c0,363.58 212.58,664.85 497.68,806.81 114.72,57.12 229.51,88.33 340.84,97.92l149.03 0c577.46,-50.19 1008.32,-677.08 740.79,-1265.47 -41.26,-90.73 -119.06,-209.33 -186.31,-276.58 -72.14,-72.14 -165.96,-130.38 -265.3,-176.54 -242.4,-112.63 -486.93,-115.23 -729.72,-6.72 -331.6,148.2 -547.01,460.09 -547.01,820.58z"/>
  </g>
 </g>
</svg>
