<?xml version="1.0" encoding="UTF-8"?>
<!DOCTYPE svg PUBLIC "-//W3C//DTD SVG 1.1//EN" "http://www.w3.org/Graphics/SVG/1.1/DTD/svg11.dtd">
<!-- Creator: CorelDRAW 2019 (64-Bit) -->
<svg xmlns="http://www.w3.org/2000/svg" xml:space="preserve" width="259.563mm" height="66.6426mm" version="1.1" style="shape-rendering:geometricPrecision; text-rendering:geometricPrecision; image-rendering:optimizeQuality; fill-rule:evenodd; clip-rule:evenodd"
viewBox="0 0 27626.36 7093.05"
 xmlns:xlink="http://www.w3.org/1999/xlink"
 xmlns:xodm="http://www.corel.com/coreldraw/odm/2003">
 <defs>
  <style type="text/css">
   <![CDATA[
    .str0 {stroke:#00AD59;stroke-width:21.29;stroke-miterlimit:22.9256}
    .fil0 {fill:#00AD59}
    .fil1 {fill:#FEFEFE;fill-rule:nonzero}
   ]]>
  </style>
 </defs>
 <g id="Capa_x0020_1">
  <metadata id="CorelCorpID_0Corel-Layer"/>
  <g id="_226432896">
   <rect class="fil0 str0" x="10.64" y="10.64" width="27605.07" height="7071.77" rx="4438.62" ry="3535.88"/>
   <path class="fil1" d="M6563.11 4931.99c-167.7,0 -316.05,-34.19 -445.04,-102.56 -129,-68.36 -228.97,-164.47 -299.92,-288.31 -70.95,-123.84 -106.42,-267.02 -106.42,-429.56l0 -1137.77c0,-162.54 35.47,-305.08 106.42,-427.63 70.95,-122.55 170.92,-217.36 299.92,-284.43 129,-67.09 277.35,-100.62 445.04,-100.62 167.7,0 316.05,32.9 445.04,98.69 129,65.79 228.97,158.67 299.92,278.63 70.95,119.97 106.42,259.93 106.42,419.89l0 23.21c0,12.9 -4.51,24.51 -13.54,34.84 -9.04,10.31 -20,15.48 -32.9,15.48l-359.91 15.49c-30.95,0 -46.44,-15.49 -46.44,-46.45l0 -46.44c0,-121.26 -36.76,-219.3 -110.29,-294.11 -73.54,-74.82 -169.63,-112.23 -288.32,-112.23 -121.25,0 -218.65,37.41 -292.17,112.23 -73.54,74.81 -110.3,172.85 -110.3,294.11l0 1188.07c0,121.26 36.76,218.66 110.3,292.18 73.52,73.54 170.92,110.3 292.17,110.3 118.68,0 214.78,-36.76 288.32,-110.3 73.52,-73.52 110.29,-170.92 110.29,-292.18l0 -50.3c0,-28.39 15.49,-42.57 46.44,-42.57l359.91 15.48c12.9,0 23.86,4.52 32.9,13.55 9.03,9.03 13.54,20 13.54,32.9l0 15.48c0,159.96 -35.47,301.21 -106.42,423.76 -70.95,122.55 -170.92,216.72 -299.92,282.51 -129,65.79 -277.35,98.69 -445.04,98.69zm1954.32 0c-208.97,0 -380.54,-56.11 -514.71,-168.35 -134.16,-112.22 -215.42,-263.8 -243.81,-454.72 -20.64,-123.84 -30.95,-256.71 -30.95,-398.61 0,-147.05 10.31,-282.5 30.95,-406.34 28.39,-188.34 110.95,-337.32 247.68,-446.97 136.74,-109.65 308.31,-164.47 514.71,-164.47 203.81,0 372.8,54.82 506.96,164.47 134.16,109.65 215.43,257.35 243.81,443.11 20.64,129 30.96,264.45 30.96,406.34 0,154.8 -9.04,287.66 -27.09,398.61 -28.39,193.5 -109.65,346.36 -243.81,458.58 -134.16,112.23 -305.73,168.35 -514.71,168.35zm0 -386.99c85.14,0 156.74,-28.39 214.78,-85.14 58.05,-56.76 93.52,-131.58 106.42,-224.46 10.31,-134.16 15.48,-242.52 15.48,-325.08 0,-85.14 -5.16,-194.79 -15.48,-328.95 -12.9,-92.87 -48.37,-166.4 -106.42,-220.58 -58.05,-54.18 -129.65,-81.26 -214.78,-81.26 -87.72,0 -159.96,27.09 -216.72,81.26 -56.75,54.19 -91.59,127.71 -104.49,220.58 -10.31,90.3 -15.48,199.95 -15.48,328.95 0,131.58 5.16,239.95 15.48,325.08 12.9,92.87 47.74,167.7 104.49,224.46 56.76,56.75 129,85.14 216.72,85.14zm2054.95 -1652.47c188.34,0 335.4,59.34 441.17,178.01 105.77,118.68 158.67,282.51 158.67,491.48l0 1292.57c0,12.9 -4.52,23.86 -13.55,32.89 -9.03,9.04 -20,13.55 -32.9,13.55l-356.03 0c-12.9,0 -23.86,-4.51 -32.89,-13.55 -9.04,-9.03 -13.55,-19.99 -13.55,-32.89l0 -1230.65c0,-105.77 -26.45,-189.62 -79.34,-251.55 -52.89,-61.92 -124.49,-92.87 -214.78,-92.87 -92.87,0 -167.05,31.6 -222.52,94.81 -55.46,63.21 -83.2,147.7 -83.2,253.48l0 1226.77c0,12.9 -4.51,23.86 -13.55,32.89 -9.03,9.04 -19.99,13.55 -32.89,13.55l-356.03 0c-12.9,0 -23.87,-4.51 -32.9,-13.55 -9.03,-9.03 -13.55,-19.99 -13.55,-32.89l0 -1884.66c0,-12.9 4.52,-23.87 13.55,-32.9 9.03,-9.03 20,-13.55 32.9,-13.55l356.03 0c12.9,0 23.86,4.52 32.89,13.55 9.04,9.03 13.55,20 13.55,32.9l0 100.61c0,7.74 2.58,12.9 7.74,15.49 5.16,2.58 10.32,0 15.49,-7.75 103.2,-123.84 245.1,-185.75 425.69,-185.75zm1938.85 325.07c0,12.9 -4.52,23.86 -13.55,32.9 -9.03,9.03 -20,13.54 -32.9,13.54l-313.46 0c-12.9,0 -19.35,6.45 -19.35,19.35l0 971.36c0,95.46 18.7,163.18 56.11,203.17 37.41,39.99 96.1,58.69 176.08,56.11l69.66 0c12.9,0 23.86,4.51 32.89,13.55 9.04,9.03 13.55,19.99 13.55,32.89l0 294.12c0,28.38 -15.49,45.15 -46.44,50.31l-162.55 0c-190.91,0 -334.1,-33.55 -429.56,-100.62 -95.46,-67.07 -143.19,-193.5 -143.19,-379.26l0 -1141.63c0,-12.9 -6.45,-19.35 -19.35,-19.35l-178.02 0c-12.9,0 -23.86,-4.51 -32.9,-13.54 -9.03,-9.04 -13.54,-20 -13.54,-32.9l0 -247.67c0,-12.9 4.51,-23.87 13.54,-32.9 9.04,-9.03 20,-13.55 32.9,-13.55l178.02 0c12.9,0 19.35,-6.45 19.35,-19.35l0 -441.17c0,-12.9 4.51,-23.86 13.54,-32.9 9.04,-9.03 20,-13.54 32.9,-13.54l340.56 0c12.9,0 23.86,4.51 32.89,13.54 9.04,9.04 13.55,20 13.55,32.9l0 441.17c0,12.9 6.45,19.35 19.35,19.35l313.46 0c12.9,0 23.87,4.52 32.9,13.55 9.03,9.03 13.55,20 13.55,32.9l0 247.67zm1044.89 -325.07c147.06,0 277.35,27.73 390.86,83.2 113.52,55.47 201.88,132.22 265.1,230.26 63.21,98.04 94.81,210.27 94.81,336.68l0 1311.92c0,12.9 -4.51,23.86 -13.54,32.89 -9.04,9.04 -20,13.55 -32.9,13.55l-356.03 0c-12.9,0 -23.86,-4.51 -32.9,-13.55 -9.03,-9.03 -13.54,-19.99 -13.54,-32.89l0 -96.75c0,-7.74 -2.59,-12.9 -7.75,-15.49 -5.15,-2.58 -10.31,-1.29 -15.48,3.87 -108.36,123.84 -264.45,185.76 -468.27,185.76 -170.27,0 -314.75,-45.8 -433.43,-137.39 -118.67,-91.59 -178.01,-240.58 -178.01,-446.98 0,-216.71 69.01,-377.96 207.04,-483.74 138.03,-105.77 328.31,-158.66 570.82,-158.66l305.73 0c12.9,0 19.35,-6.45 19.35,-19.35l0 -96.75c0,-95.46 -26.45,-170.92 -79.34,-226.4 -52.89,-55.47 -125.77,-83.2 -218.66,-83.2 -74.81,0 -136.09,17.41 -183.82,52.24 -47.73,34.84 -78.04,81.91 -90.94,141.26 -7.74,28.38 -25.8,42.56 -54.19,42.56l-375.38 -23.21c-12.9,0 -23.86,-4.52 -32.89,-13.55 -9.04,-9.03 -12.26,-18.7 -9.67,-29.02 15.48,-165.12 92.23,-299.27 230.26,-402.47 138.02,-103.2 308.95,-154.8 512.77,-154.8zm-73.54 1675.68c100.62,0 188.35,-29.02 263.16,-87.07 74.82,-58.05 112.23,-134.8 112.23,-230.26l0 -201.24c0,-12.9 -6.45,-19.35 -19.35,-19.35l-259.3 0c-113.51,0 -203.17,24.51 -268.96,73.52 -65.79,49.02 -98.69,119.97 -98.69,212.85 0,82.56 25.16,145.12 75.47,187.7 50.3,42.57 115.45,63.85 195.42,63.85zm1954.33 363.78c-208.98,0 -379.91,-53.54 -512.77,-160.61 -132.87,-107.06 -213.5,-253.47 -241.87,-439.23 -20.65,-105.78 -30.96,-247.68 -30.96,-425.69 0,-162.54 10.31,-303.15 30.96,-421.83 28.38,-180.6 109.65,-324.42 243.8,-431.49 134.16,-107.07 304.44,-160.6 510.84,-160.6 198.65,0 366.35,50.95 503.09,152.86 136.74,101.91 219.3,235.42 247.67,400.53 2.58,10.32 5.16,23.22 7.74,38.7 2.59,15.49 3.87,34.84 3.87,58.05l0 7.75c0,23.21 -14.19,37.4 -42.57,42.56l-352.16 34.84 -7.75 0c-23.21,0 -37.4,-14.2 -42.56,-42.57 0,-18.06 -2.59,-37.41 -7.74,-58.05 -12.9,-69.66 -47.09,-128.35 -102.56,-176.08 -55.46,-47.73 -125.77,-71.59 -210.91,-71.59 -85.14,0 -155.45,25.8 -210.91,77.4 -55.47,51.6 -89.66,119.96 -102.56,205.1 -12.9,98.05 -19.35,214.15 -19.35,348.3 0,147.06 7.75,265.74 23.22,356.04 12.9,85.14 46.44,152.86 100.62,203.17 54.18,50.3 123.84,75.46 208.97,75.46 87.72,0 159.31,-25.16 214.78,-75.46 55.46,-50.31 88.36,-111.59 98.69,-183.82l3.86 -38.7c2.59,-12.9 9.04,-23.87 19.35,-32.9 10.32,-9.03 21.94,-12.25 34.84,-9.67l348.3 30.96c30.95,5.16 46.44,21.93 46.44,50.31l-7.74 65.79c-23.22,175.44 -103.2,316.05 -239.95,421.82 -136.74,105.78 -308.3,158.67 -514.69,158.67zm2027.85 -1714.39c0,12.9 -4.52,23.86 -13.55,32.9 -9.03,9.03 -20,13.54 -32.9,13.54l-313.46 0c-12.9,0 -19.35,6.45 -19.35,19.35l0 971.36c0,95.46 18.7,163.18 56.11,203.17 37.41,39.99 96.1,58.69 176.08,56.11l69.66 0c12.9,0 23.86,4.51 32.89,13.55 9.04,9.03 13.55,19.99 13.55,32.89l0 294.12c0,28.38 -15.49,45.15 -46.44,50.31l-162.55 0c-190.91,0 -334.1,-33.55 -429.56,-100.62 -95.46,-67.07 -143.19,-193.5 -143.19,-379.26l0 -1141.63c0,-12.9 -6.45,-19.35 -19.35,-19.35l-178.02 0c-12.9,0 -23.86,-4.51 -32.9,-13.54 -9.03,-9.04 -13.54,-20 -13.54,-32.9l0 -247.67c0,-12.9 4.51,-23.87 13.54,-32.9 9.04,-9.03 20,-13.55 32.9,-13.55l178.02 0c12.9,0 19.35,-6.45 19.35,-19.35l0 -441.17c0,-12.9 4.51,-23.86 13.54,-32.9 9.04,-9.03 20,-13.54 32.9,-13.54l340.56 0c12.9,0 23.86,4.51 32.89,13.54 9.04,9.04 13.55,20 13.55,32.9l0 441.17c0,12.9 6.45,19.35 19.35,19.35l313.46 0c12.9,0 23.87,4.52 32.9,13.55 9.03,9.03 13.55,20 13.55,32.9l0 247.67zm1044.89 -325.07c147.06,0 277.35,27.73 390.86,83.2 113.52,55.47 201.88,132.22 265.1,230.26 63.21,98.04 94.81,210.27 94.81,336.68l0 1311.92c0,12.9 -4.51,23.86 -13.54,32.89 -9.04,9.04 -20,13.55 -32.9,13.55l-356.03 0c-12.9,0 -23.86,-4.51 -32.9,-13.55 -9.03,-9.03 -13.54,-19.99 -13.54,-32.89l0 -96.75c0,-7.74 -2.59,-12.9 -7.75,-15.49 -5.15,-2.58 -10.31,-1.29 -15.48,3.87 -108.36,123.84 -264.45,185.76 -468.27,185.76 -170.27,0 -314.75,-45.8 -433.43,-137.39 -118.67,-91.59 -178.01,-240.58 -178.01,-446.98 0,-216.71 69.01,-377.96 207.04,-483.74 138.03,-105.77 328.31,-158.66 570.82,-158.66l305.73 0c12.9,0 19.35,-6.45 19.35,-19.35l0 -96.75c0,-95.46 -26.45,-170.92 -79.34,-226.4 -52.89,-55.47 -125.77,-83.2 -218.66,-83.2 -74.81,0 -136.09,17.41 -183.82,52.24 -47.73,34.84 -78.04,81.91 -90.94,141.26 -7.74,28.38 -25.8,42.56 -54.19,42.56l-375.38 -23.21c-12.9,0 -23.86,-4.52 -32.89,-13.55 -9.04,-9.03 -12.26,-18.7 -9.67,-29.02 15.48,-165.12 92.23,-299.27 230.26,-402.47 138.02,-103.2 308.95,-154.8 512.77,-154.8zm-73.54 1675.68c100.62,0 188.35,-29.02 263.16,-87.07 74.82,-58.05 112.23,-134.8 112.23,-230.26l0 -201.24c0,-12.9 -6.45,-19.35 -19.35,-19.35l-259.3 0c-113.51,0 -203.17,24.51 -268.96,73.52 -65.79,49.02 -98.69,119.97 -98.69,212.85 0,82.56 25.16,145.12 75.47,187.7 50.3,42.57 115.45,63.85 195.42,63.85zm-108.35 -1892.4c-18.06,0 -29.67,-5.16 -34.84,-15.48 -5.16,-10.32 -3.86,-23.22 3.87,-38.7l220.58 -398.61c12.9,-20.64 32.25,-30.96 58.05,-30.96l290.25 0c18.06,0 30.31,5.8 36.76,17.41 6.45,11.61 4.51,25.16 -5.8,40.64l-274.77 394.73c-12.9,20.64 -30.96,30.96 -54.18,30.96l-239.93 0zm2213.61 216.72c188.34,0 335.4,59.34 441.17,178.01 105.77,118.68 158.67,282.51 158.67,491.48l0 1292.57c0,12.9 -4.52,23.86 -13.55,32.89 -9.03,9.04 -20,13.55 -32.9,13.55l-356.03 0c-12.9,0 -23.86,-4.51 -32.89,-13.55 -9.04,-9.03 -13.55,-19.99 -13.55,-32.89l0 -1230.65c0,-105.77 -26.45,-189.62 -79.34,-251.55 -52.89,-61.92 -124.49,-92.87 -214.78,-92.87 -92.87,0 -167.05,31.6 -222.52,94.81 -55.46,63.21 -83.2,147.7 -83.2,253.48l0 1226.77c0,12.9 -4.51,23.86 -13.55,32.89 -9.03,9.04 -19.99,13.55 -32.89,13.55l-356.03 0c-12.9,0 -23.87,-4.51 -32.9,-13.55 -9.03,-9.03 -13.55,-19.99 -13.55,-32.89l0 -1884.66c0,-12.9 4.52,-23.87 13.55,-32.9 9.03,-9.03 20,-13.55 32.9,-13.55l356.03 0c12.9,0 23.86,4.52 32.89,13.55 9.04,9.03 13.55,20 13.55,32.9l0 100.61c0,7.74 2.58,12.9 7.74,15.49 5.16,2.58 10.32,0 15.49,-7.75 103.2,-123.84 245.1,-185.75 425.69,-185.75zm1733.73 2039.46c-208.97,0 -380.54,-56.11 -514.71,-168.35 -134.16,-112.22 -215.42,-263.8 -243.81,-454.72 -20.64,-123.84 -30.95,-256.71 -30.95,-398.61 0,-147.05 10.31,-282.5 30.95,-406.34 28.39,-188.34 110.95,-337.32 247.68,-446.97 136.74,-109.65 308.31,-164.47 514.71,-164.47 203.81,0 372.8,54.82 506.96,164.47 134.16,109.65 215.43,257.35 243.81,443.11 20.64,129 30.96,264.45 30.96,406.34 0,154.8 -9.04,287.66 -27.09,398.61 -28.39,193.5 -109.65,346.36 -243.81,458.58 -134.16,112.23 -305.73,168.35 -514.71,168.35zm0 -386.99c85.14,0 156.74,-28.39 214.78,-85.14 58.05,-56.76 93.52,-131.58 106.42,-224.46 10.31,-134.16 15.48,-242.52 15.48,-325.08 0,-85.14 -5.16,-194.79 -15.48,-328.95 -12.9,-92.87 -48.37,-166.4 -106.42,-220.58 -58.05,-54.18 -129.65,-81.26 -214.78,-81.26 -87.72,0 -159.96,27.09 -216.72,81.26 -56.75,54.19 -91.59,127.71 -104.49,220.58 -10.31,90.3 -15.48,199.95 -15.48,328.95 0,131.58 5.16,239.95 15.48,325.08 12.9,92.87 47.74,167.7 104.49,224.46 56.76,56.75 129,85.14 216.72,85.14zm1826.61 379.26c-224.46,0 -403.76,-50.31 -537.92,-150.93 -134.16,-100.61 -201.24,-232.2 -201.24,-394.73l0 -30.96c0,-12.9 4.51,-23.86 13.54,-32.89 9.04,-9.04 20,-13.55 32.9,-13.55l336.68 0c12.9,0 23.86,4.51 32.9,13.55 9.03,9.03 13.54,19.99 13.54,32.89l0 11.61c0,61.92 29.67,115.45 89.01,160.6 59.34,45.15 132.87,67.72 220.58,67.72 85.14,0 154.16,-20.64 207.05,-61.91 52.89,-41.29 79.34,-92.89 79.34,-154.8 0,-61.92 -26.45,-109.65 -79.34,-143.19 -52.89,-33.55 -134.81,-69.66 -245.75,-108.36l-100.61 -34.84c-175.45,-56.75 -316.05,-128.35 -421.83,-214.77 -105.77,-86.44 -158.66,-214.78 -158.66,-385.07 0,-180.6 64.5,-323.13 193.5,-427.62 129,-104.5 299.27,-156.74 510.83,-156.74 219.3,0 394.08,53.54 524.38,160.6 130.29,107.07 195.42,249.61 195.42,427.63l0 3.87c0,12.9 -4.51,23.86 -13.54,32.89 -9.04,9.04 -20,13.55 -32.9,13.55l-325.07 0c-12.9,0 -23.86,-4.51 -32.9,-13.55 -9.03,-9.03 -13.54,-19.99 -13.54,-32.89l0 -15.49c0,-64.5 -27.1,-118.04 -81.27,-160.6 -54.18,-42.57 -125.12,-63.86 -212.85,-63.86 -85.14,0 -153.51,20 -205.11,59.99 -51.6,39.99 -77.4,90.95 -77.4,152.86 0,49.02 18.06,89.66 54.19,121.91 36.11,32.25 76.75,57.4 121.9,75.46 45.15,18.06 124.49,46.44 238,85.14 121.26,41.29 223.82,83.85 307.67,127.71 83.85,43.86 155.44,104.49 214.77,181.89 59.35,77.4 89.01,175.44 89.01,294.12 0,178.01 -66.44,317.98 -199.3,419.88 -132.87,101.91 -311.53,152.87 -535.99,152.87zm1300.31 -936.54c-12.9,0 -23.86,-4.51 -32.89,-13.54 -9.04,-9.04 -13.55,-20 -13.55,-32.9l-42.57 -1702.78c0,-12.9 4.52,-23.86 13.55,-32.89 9.03,-9.04 20,-13.55 32.9,-13.55l356.03 0c12.9,0 23.86,4.51 32.89,13.55 9.04,9.03 13.55,19.99 13.55,32.89l-46.44 1702.78c0,12.9 -4.51,23.86 -13.55,32.9 -9.03,9.03 -19.99,13.54 -32.89,13.54l-267.03 0zm123.84 905.57c-79.97,0 -145.76,-25.8 -197.36,-77.4 -51.6,-51.6 -77.4,-117.39 -77.4,-197.37 0,-79.97 25.8,-145.12 77.4,-195.43 51.6,-50.3 117.39,-75.46 197.36,-75.46 79.99,0 145.77,25.16 197.37,75.46 51.6,50.31 77.4,115.46 77.4,195.43 0,79.99 -25.8,145.77 -77.4,197.37 -51.6,51.6 -117.39,77.4 -197.37,77.4z"/>
   <g>
    <path class="fil1" d="M2648.14 4658.82l47.74 29.88c215.1,134.85 461.98,206.14 713.81,206.14 743.56,0 1348.4,-604.84 1348.4,-1348.35 0,-743.44 -604.84,-1348.29 -1348.4,-1348.29 -743.44,0 -1348.27,604.84 -1348.27,1348.29 0,302.46 99.08,589.1 286.38,828.79l33.11 42.34 -69.32 357.11 336.56 -115.91 -0.01 0zm761.55 471.71c-277.23,0 -549.17,-73.39 -790.01,-212.67l-617.13 212.67 126.78 -653.55c-198.78,-272.51 -303.6,-593.03 -303.6,-930.48 0,-873.42 710.55,-1583.95 1583.96,-1583.95 873.46,0 1584.03,710.53 1584.03,1583.95 0,873.44 -710.55,1584.03 -1584.03,1584.03l-0.01 0z"/>
    <path class="fil1" d="M2610.04 2937.94c0,0 92.99,-162.45 168.72,-171.73 75.79,-9.31 173.33,-9.31 199.61,40.22 26.32,49.48 143.87,337.31 143.87,337.31 0,0 20.18,49.51 -10.77,97.49 -30.94,47.95 -100.56,117.58 -100.56,117.58 0,0 -38.7,49.51 0,102.16 38.69,52.54 98.66,149.27 222.83,273.28 123.95,124.1 362.01,212.58 362.01,212.58 0,0 34.09,4.59 55.78,-17.05 21.58,-21.63 139.26,-168.64 139.26,-168.64 0,0 37.73,-48.69 100.5,-20.08 62.66,28.6 334.18,164 334.18,164 0,0 31.78,11.57 31.78,59.54 0,47.94 -19.4,165.33 -59.11,204.99 -39.68,39.7 -155.7,162.04 -330.1,162.04 -174.34,0 -589.57,-141.9 -810.83,-363.11 -221.27,-221.32 -417.73,-445.7 -464.1,-649.9 -46.45,-204.27 -40.24,-296.58 16.9,-380.68l0.02 0.01z"/>
   </g>
  </g>
 </g>
</svg>
