<?xml version="1.0" encoding="UTF-8"?>
<!DOCTYPE svg PUBLIC "-//W3C//DTD SVG 1.1//EN" "http://www.w3.org/Graphics/SVG/1.1/DTD/svg11.dtd">
<!-- Creator: CorelDRAW 2019 (64-Bit) -->
<svg xmlns="http://www.w3.org/2000/svg" xml:space="preserve" width="79.0637mm" height="79.0617mm" version="1.1" style="shape-rendering:geometricPrecision; text-rendering:geometricPrecision; image-rendering:optimizeQuality; fill-rule:evenodd; clip-rule:evenodd"
viewBox="0 0 5219.47 5219.34"
 xmlns:xlink="http://www.w3.org/1999/xlink"
 xmlns:xodm="http://www.corel.com/coreldraw/odm/2003">
 <defs>
  <style type="text/css">
   <![CDATA[
    .fil2 {fill:#FEFEFE;fill-rule:nonzero}
    .fil0 {fill:#E5E4E6;fill-rule:nonzero}
    .fil1 {fill:#00AD59;fill-rule:nonzero}
   ]]>
  </style>
 </defs>
 <g id="Capa_x0020_1">
  <metadata id="CorelCorpID_0Corel-Layer"/>
  <g id="_963083728">
   <path class="fil0" d="M2609.71 5219.34c-456.79,0 -904.82,-120.8 -1301.64,-350.27l-1016.77 350.27 208.98 -1076.66c-327.61,-448.99 -500.28,-977.09 -500.28,-1532.97 0,-1439.02 1170.73,-2609.71 2609.71,-2609.71 1439.17,0 2609.77,1170.7 2609.77,2609.71 0,1438.96 -1170.6,2609.63 -2609.77,2609.63z"/>
   <path class="fil1" d="M2609.71 5219.34c-456.79,0 -904.82,-120.8 -1301.64,-350.27l-1016.77 350.27 208.98 -1076.66c-327.61,-448.99 -500.28,-977.09 -500.28,-1532.97 0,-1439.02 1170.73,-2609.71 2609.71,-2609.71 1439.17,0 2609.77,1170.7 2609.77,2609.71 0,1438.96 -1170.6,2609.63 -2609.77,2609.63z"/>
   <path class="fil2" d="M1790.02 3806.88l51.38 32.16c231.52,145.14 497.24,221.87 768.3,221.87 800.33,0 1451.35,-651.02 1451.35,-1451.28 0,-800.21 -651.02,-1451.22 -1451.35,-1451.22 -800.2,0 -1451.2,651.02 -1451.2,1451.22 0,325.56 106.64,634.07 308.25,892.06l35.64 45.58 -74.61 384.37 362.24 -124.76zm819.68 507.72c-298.39,0 -591.09,-78.99 -850.31,-228.9l-664.25 228.9 136.46 -703.44c-213.95,-293.32 -326.78,-638.3 -326.78,-1001.52 0,-940.1 764.8,-1704.88 1704.89,-1704.88 940.15,0 1704.96,764.78 1704.96,1704.88 0,940.13 -764.81,1704.96 -1704.96,1704.96z"/>
   <path class="fil2" d="M1749.01 1954.62c0,0 100.1,-174.85 181.61,-184.84 81.57,-10.03 186.56,-10.03 214.84,43.29 28.33,53.26 154.85,363.07 154.85,363.07 0,0 21.72,53.29 -11.59,104.94 -33.3,51.61 -108.24,126.55 -108.24,126.55 0,0 -41.65,53.29 0,109.95 41.64,56.55 106.2,160.67 239.84,294.14 133.42,133.58 389.65,228.81 389.65,228.81 0,0 36.69,4.94 60.04,-18.35 23.24,-23.28 149.89,-181.51 149.89,-181.51 0,0 40.61,-52.42 108.17,-21.63 67.45,30.78 359.7,176.53 359.7,176.53 0,0 34.21,12.46 34.21,64.09 0,51.6 -20.89,177.95 -63.63,220.64 -42.71,42.73 -167.59,174.41 -355.29,174.41 -187.66,0 -634.58,-152.73 -872.73,-390.83 -238.15,-238.22 -449.62,-479.73 -499.53,-699.51 -49.99,-219.87 -43.31,-319.22 18.2,-409.75z"/>
  </g>
 </g>
</svg>
